<svg width="18" height="18" viewBox="0 0 18 18" fill="none" xmlns="http://www.w3.org/2000/svg">
<path fill-rule="evenodd" clip-rule="evenodd" d="M5.84264 1.49219H12.1127C14.4237 1.49219 15.7104 2.82019 15.7104 5.0957V12.8026C15.7104 15.1154 14.4237 16.4136 12.1127 16.4136H5.84264C3.56833 16.4136 2.24414 15.1154 2.24414 12.8026V5.0957C2.24414 2.82019 3.56833 1.49219 5.84264 1.49219ZM6.04473 4.96887V4.96141H8.28089C8.60333 4.96141 8.86518 5.22253 8.86518 5.54259C8.86518 5.87161 8.60333 6.13274 8.28089 6.13274H6.04473C5.72229 6.13274 5.46119 5.87161 5.46119 5.5508C5.46119 5.22999 5.72229 4.96887 6.04473 4.96887ZM6.04473 9.50496H11.9101C12.2318 9.50496 12.4936 9.24383 12.4936 8.92303C12.4936 8.60222 12.2318 8.34035 11.9101 8.34035H6.04473C5.72229 8.34035 5.46119 8.60222 5.46119 8.92303C5.46119 9.24383 5.72229 9.50496 6.04473 9.50496ZM6.04465 12.9145H11.91C12.2085 12.8846 12.4337 12.6302 12.4337 12.3326C12.4337 12.0267 12.2085 11.773 11.91 11.7432H6.04465C5.82021 11.7208 5.60326 11.8252 5.48355 12.0192C5.36385 12.2057 5.36385 12.4519 5.48355 12.6459C5.60326 12.8324 5.82021 12.9443 6.04465 12.9145Z" fill="#A6ABC8"/>
</svg>
